<?xml version="1.0" encoding="UTF-8"?>
<svg id="Calque_2" xmlns="http://www.w3.org/2000/svg" viewBox="0 0 988 988">
  <defs>
    <style>
      .cls-1 {
        fill: #fff;
      }
    </style>
  </defs>
  <g id="Calque_1-2" data-name="Calque_1">
    <circle class="cls-1" cx="494" cy="494" r="494"/>
    <path d="M477,589c-94-5-110-97-110-202,0-168,35-219,133-219s133,50,133,219v36c-16-6-32-11-48-13v-23c0-126-14-173-85-173s-85,47-85,173c0,51,8,154,76,157,6,11,0,34-14,45ZM569,711c-19-11-38-23-53-34,14-12,24-22,34-35,14,10,28,19,43,28,92,53,141,64,176,3,36-62,1-98-91-151-49-28-86-45-116-45-25,0-45,11-65,45-14-3-29-9-38-25,23-42,60-66,101-66,47,0,99,25,142,50,128,76,156,129,106,215-49,84-110,90-239,15ZM432,711c-130,73-190,69-239-15-50-86-23-141,106-215,19-11,34-19,50-26,1,17,3,33,7,49-11,5-20,10-33,18-90,56-127,89-91,151,35,61,84,50,176-3,66-37,112-82,112-114,0-8-3-15-6-19,7-15,19-27,32-33,14,12,21,23,21,46,0,61-68,123-135,161ZM494,988c273,0,494-221,494-494S767,0,494,0,0,221,0,494s221,494,494,494Z"/>
  </g>
</svg>